<svg id="svg" xmlns="http://www.w3.org/2000/svg" xmlns:xlink="http://www.w3.org/1999/xlink" width="400" height="211.49897330595482" viewBox="0, 0, 400,211.49897330595482"><g id="svgg"><path id="path0" d="M201.092 3.305 C 194.699 4.378,189.048 7.025,183.648 11.475 C 180.398 14.153,164.024 33.766,164.456 34.463 C 166.486 37.748,172.619 35.253,179.864 28.194 C 199.397 9.164,219.123 10.102,233.608 30.751 L 235.384 33.284 233.065 32.258 C 224.474 28.459,214.210 26.695,208.131 27.973 C 203.446 28.958,196.315 33.665,199.487 33.679 C 205.209 33.703,219.644 38.928,229.306 44.473 C 244.049 52.933,246.060 53.626,254.808 53.273 C 263.139 52.936,269.242 50.754,274.231 46.328 L 276.660 44.173 272.313 41.757 C 262.731 36.430,257.371 32.302,247.639 22.752 C 242.057 17.274,240.549 16.043,234.292 11.853 C 224.741 5.458,210.346 1.752,201.092 3.305 M203.507 16.063 C 195.079 17.290,189.534 20.443,180.174 29.330 C 176.916 32.423,173.738 35.068,172.683 35.565 C 169.167 37.222,168.503 38.996,171.082 39.847 C 174.554 40.993,178.266 39.054,184.805 32.680 C 198.021 19.797,210.478 16.047,222.459 21.347 C 224.894 22.424,224.680 22.123,221.663 20.224 C 215.654 16.443,209.919 15.128,203.507 16.063 M208.435 20.565 C 199.923 21.858,194.262 25.083,184.855 33.995 C 179.328 39.231,176.721 41.038,174.665 41.059 C 174.170 41.064,173.651 41.253,173.511 41.478 C 173.043 42.236,176.872 41.911,179.283 40.988 C 181.159 40.270,182.690 39.099,186.815 35.225 C 200.299 22.562,212.002 19.021,224.152 23.929 C 227.506 25.284,227.373 24.993,223.819 23.203 C 218.976 20.764,213.406 19.809,208.435 20.565 M219.232 49.856 C 216.459 50.846,214.387 52.830,209.915 58.777 C 198.708 73.677,186.107 79.417,173.511 75.357 C 172.775 75.119,172.764 75.140,173.406 75.552 C 176.260 77.389,184.467 78.141,189.478 77.026 C 198.098 75.109,204.684 69.954,212.492 59.014 C 216.683 53.142,217.845 51.982,221.210 50.313 C 223.545 49.155,222.117 48.825,219.232 49.856 M221.150 51.691 C 218.530 52.885,217.062 54.375,213.264 59.691 C 202.263 75.092,191.380 80.982,178.850 78.317 C 175.045 77.508,175.062 77.696,178.925 79.183 C 193.558 84.813,206.362 79.298,218.433 62.165 C 220.861 58.719,222.890 56.300,224.056 55.463 C 228.738 52.100,226.532 49.237,221.150 51.691 M141.824 51.915 C 135.991 53.027,130.266 55.483,126.362 58.547 C 123.772 60.580,120.053 65.241,120.837 65.473 C 132.642 68.966,141.847 73.514,153.275 81.496 C 175.642 97.122,200.785 98.170,214.890 84.066 C 218.647 80.309,223.008 73.427,230.755 59.035 L 232.910 55.032 231.757 54.593 C 229.810 53.853,226.889 54.727,223.943 56.932 C 223.221 57.473,220.910 60.357,218.810 63.342 C 202.946 85.877,184.364 88.688,165.727 71.373 L 162.871 68.720 167.575 69.707 C 180.630 72.446,191.734 70.499,197.212 64.510 L 199.310 62.218 195.240 61.922 C 179.731 60.796,177.217 60.313,166.697 56.431 C 152.941 51.355,148.751 50.594,141.824 51.915 M98.152 173.922 L 98.152 202.464 104.517 202.464 L 110.883 202.464 110.883 173.922 L 110.883 145.380 104.517 145.380 L 98.152 145.380 98.152 173.922 M175.269 155.339 L 175.154 160.370 172.177 160.490 L 169.199 160.611 169.199 165.708 L 169.199 170.806 172.177 170.927 L 175.154 171.047 175.390 182.546 C 175.619 193.728,175.787 195.200,177.130 197.796 C 179.489 202.359,187.385 204.394,195.077 202.423 L 197.125 201.898 197.125 196.460 L 197.125 191.022 195.793 191.404 C 188.910 193.379,188.090 192.190,188.090 180.232 L 188.090 170.842 192.608 170.842 L 197.125 170.842 197.125 165.708 L 197.125 160.575 192.608 160.575 L 188.090 160.575 188.090 155.441 L 188.090 150.308 181.737 150.308 L 175.385 150.308 175.269 155.339 M372.485 155.441 L 372.485 160.575 369.610 160.575 L 366.735 160.575 366.735 165.708 L 366.735 170.842 369.571 170.842 L 372.407 170.842 372.585 182.033 C 372.810 196.172,373.719 199.340,378.210 201.630 C 381.401 203.258,389.833 203.514,393.532 202.096 L 394.661 201.663 394.661 196.343 L 394.661 191.022 393.329 191.404 C 386.132 193.468,385.093 191.844,385.298 178.850 L 385.421 171.047 389.836 170.931 L 394.251 170.814 394.251 165.708 L 394.251 160.603 389.836 160.486 L 385.421 160.370 385.306 155.339 L 385.190 150.308 378.837 150.308 L 372.485 150.308 372.485 155.441 M19.302 160.404 C 0.547 165.352,-3.615 189.166,12.447 199.627 C 20.951 205.166,34.121 204.425,41.889 197.971 L 42.916 197.118 39.252 193.707 L 35.588 190.296 33.127 191.290 C 26.214 194.082,17.190 191.800,15.918 186.938 L 15.683 186.037 30.429 186.037 L 45.175 186.037 45.175 181.606 C 45.175 166.552,33.198 156.737,19.302 160.404 M67.556 160.519 C 42.760 167.637,47.372 203.040,73.101 203.074 C 80.264 203.084,84.556 201.328,88.940 196.592 C 92.211 193.059,92.442 193.622,86.651 191.006 L 81.742 188.788 80.193 189.854 C 74.190 193.984,66.488 191.910,64.247 185.559 C 60.524 175.005,71.593 166.791,80.584 173.438 L 81.701 174.264 86.436 172.079 C 91.775 169.616,91.568 169.869,90.006 167.721 C 85.213 161.130,75.870 158.133,67.556 160.519 M133.265 160.520 C 113.413 166.225,112.906 196.400,132.560 202.470 C 138.247 204.227,144.845 203.237,148.308 200.108 L 149.897 198.672 149.897 200.568 L 149.897 202.464 156.263 202.464 L 162.628 202.464 162.628 181.520 L 162.628 160.575 156.263 160.575 L 149.897 160.575 149.897 162.218 C 149.897 164.190,149.857 164.197,147.872 162.601 C 144.561 159.941,138.357 159.057,133.265 160.520 M298.768 160.033 C 272.199 165.979,275.460 202.030,302.669 203.168 C 309.698 203.462,315.663 201.734,319.448 198.307 L 320.827 197.059 317.213 193.681 L 313.600 190.303 311.147 191.294 C 304.194 194.102,295.224 191.821,293.942 186.917 L 293.711 186.037 308.457 186.037 L 323.203 186.037 323.198 181.622 C 323.183 167.292,311.694 157.140,298.768 160.033 M352.977 160.317 C 349.405 161.458,346.626 163.856,344.585 167.560 L 343.341 169.815 343.334 165.195 L 343.326 160.575 336.961 160.575 L 330.595 160.575 330.595 181.520 L 330.595 202.464 336.961 202.464 L 343.326 202.464 343.326 193.034 C 343.326 181.497,343.627 180.324,347.603 176.353 C 350.629 173.330,353.740 172.074,358.202 172.074 L 361.008 172.074 360.894 166.016 L 360.780 159.959 357.700 159.876 C 356.006 159.830,353.881 160.029,352.977 160.317 M235.750 181.201 L 245.147 202.259 250.965 202.259 L 256.782 202.259 265.751 182.136 C 270.684 171.068,274.908 161.592,275.138 161.078 L 275.557 160.143 269.138 160.257 L 262.719 160.370 256.861 173.884 L 251.002 187.398 250.127 185.383 C 249.646 184.274,246.990 178.193,244.226 171.869 L 239.200 160.370 232.777 160.257 L 226.354 160.144 235.750 181.201 M29.729 171.990 C 30.977 172.719,33.676 175.887,33.676 176.623 C 33.676 176.843,29.962 177.002,24.846 177.002 C 14.862 177.002,14.894 177.015,17.526 174.102 C 20.717 170.569,25.793 169.691,29.729 171.990 M307.555 171.847 C 308.899 172.542,311.119 175.056,311.426 176.233 C 311.618 176.967,311.223 177.002,302.620 177.002 L 293.613 177.002 294.213 175.873 C 296.689 171.209,302.773 169.374,307.555 171.847 M145.386 172.077 C 149.487 174.169,151.496 180.513,149.684 185.649 C 146.140 195.693,131.586 193.567,130.678 182.872 C 129.921 173.954,137.771 168.192,145.386 172.077 " stroke="none" fill="#000000" fill-rule="evenodd"></path></g></svg>