<?xml version="1.0" standalone="no"?>
<!DOCTYPE svg PUBLIC "-//W3C//DTD SVG 20010904//EN"
 "http://www.w3.org/TR/2001/REC-SVG-20010904/DTD/svg10.dtd">
<svg version="1.0" xmlns="http://www.w3.org/2000/svg"
 width="900.000000pt" height="243.000000pt" viewBox="0 0 900.000000 243.000000"
 preserveAspectRatio="xMidYMid meet">
<metadata>
Created by potrace 1.10, written by Peter Selinger 2001-2011
</metadata>
<g transform="translate(0.000000,243.000000) scale(0.100000,-0.100000)"
fill="#000000" stroke="none">
<path d="M1855 2221 c-161 -44 -257 -96 -372 -203 -43 -40 -74 -60 -105 -67
-88 -22 -165 -52 -253 -98 -56 -30 -169 -155 -202 -223 -47 -98 -57 -137 -57
-235 -1 -97 -7 -115 -36 -115 -21 0 -62 -16 -160 -64 -43 -21 -89 -56 -140
-106 -165 -165 -203 -375 -106 -584 29 -61 54 -95 114 -154 77 -77 126 -107
247 -152 59 -23 68 -23 845 -33 573 -7 805 -6 859 2 182 28 308 179 312 377 2
90 -35 192 -85 233 -8 7 -13 17 -10 22 3 5 63 9 133 9 130 0 186 11 269 54 51
26 116 100 150 170 29 60 32 74 32 165 0 113 -15 158 -76 229 -69 82 -159 122
-289 131 l-80 6 -3 35 c-10 140 -61 268 -142 362 -97 113 -225 189 -405 238
-93 26 -349 27 -440 1z m378 -87 c153 -33 261 -88 357 -184 113 -112 142 -187
141 -360 -1 -103 10 -114 106 -105 73 8 184 -13 233 -43 47 -29 91 -77 111
-121 48 -109 -1 -269 -103 -338 -75 -50 -124 -56 -436 -50 -155 3 -285 8 -290
11 -5 3 -13 42 -16 86 -19 216 -180 404 -431 503 -122 48 -145 52 -325 52
-181 0 -184 0 -325 -52 -88 -33 -201 -99 -239 -142 -21 -23 -41 -27 -51 -11
-11 18 17 152 41 200 12 25 34 60 48 79 29 38 148 131 168 131 8 0 18 4 24 9
14 14 90 40 164 56 57 13 71 20 110 63 48 52 135 119 186 145 152 77 367 106
527 71z m-433 -668 c36 -10 69 -22 74 -27 6 -5 16 -9 22 -9 24 0 132 -70 187
-120 57 -52 112 -129 136 -190 8 -19 17 -91 20 -160 l6 -125 120 -5 c159 -8
210 -25 274 -96 43 -47 50 -61 57 -110 17 -136 -24 -233 -126 -302 l-55 -37
-805 0 c-799 0 -805 0 -870 22 -36 12 -78 27 -95 35 -162 73 -275 239 -275
405 0 219 172 395 445 454 53 12 69 21 131 80 112 106 183 146 324 185 30 8
56 17 59 20 3 3 73 3 156 2 106 -3 169 -9 215 -22z"/>
<path d="M5972 1738 c-7 -7 -12 -22 -12 -35 0 -13 -6 -49 -14 -81 -8 -31 -22
-93 -31 -137 -20 -98 -37 -176 -60 -277 -25 -105 -23 -108 74 -108 91 0 107 9
116 68 3 20 12 64 20 97 8 33 16 76 20 96 7 44 35 72 67 67 21 -3 23 -7 20
-53 -2 -27 -9 -72 -17 -100 -23 -86 -29 -156 -14 -166 22 -14 155 -11 166 4 6
6 17 44 26 82 59 253 59 255 18 296 -26 25 -37 29 -86 29 -54 0 -109 -20 -127
-45 -5 -6 -11 -6 -19 2 -9 9 -8 26 4 75 52 216 57 198 -51 198 -55 0 -92 -4
-100 -12z"/>
<path d="M3597 1713 c-11 -11 -8 -148 8 -318 8 -88 15 -185 15 -216 0 -30 5
-60 12 -67 8 -8 48 -12 114 -12 l102 0 20 43 c11 23 29 67 42 97 44 107 81
182 88 175 4 -4 9 -72 12 -151 4 -114 8 -147 20 -154 16 -10 152 -13 186 -4
20 5 32 30 79 154 31 83 45 120 75 195 18 44 39 98 47 120 8 22 21 55 29 73
20 46 18 61 -10 68 -54 13 -73 -13 -142 -198 -54 -145 -56 -150 -71 -155 -18
-6 -22 20 -29 183 -8 179 -5 174 -114 174 -82 0 -88 -7 -144 -157 -8 -21 -27
-72 -44 -113 -17 -41 -33 -83 -36 -93 -15 -46 -23 6 -28 165 -5 150 -8 173
-24 185 -19 14 -195 19 -207 6z"/>
<path d="M5729 1642 c-8 -4 -35 -24 -60 -46 -24 -21 -69 -48 -99 -61 -44 -19
-56 -28 -58 -49 -3 -22 1 -26 23 -26 37 0 41 -22 20 -106 -10 -40 -19 -103
-19 -139 -1 -61 1 -69 27 -91 25 -21 38 -24 111 -24 83 0 106 9 106 39 0 9
-14 28 -32 42 l-31 26 15 59 c9 33 19 79 23 104 8 59 29 90 60 90 25 0 51 32
40 50 -3 6 -20 10 -37 10 -29 0 -30 2 -24 30 3 17 9 44 12 60 6 26 3 30 -14
30 -11 0 -26 2 -34 4 -7 3 -20 2 -29 -2z"/>
<path d="M4645 1520 c-66 -9 -115 -32 -153 -71 -47 -48 -62 -88 -62 -167 0
-128 65 -180 226 -181 148 -1 214 32 218 111 l1 33 -64 3 -64 3 -44 -46 c-36
-37 -47 -43 -63 -35 -33 18 -37 102 -6 122 6 4 62 8 124 8 62 0 122 5 132 10
12 6 21 26 25 54 16 106 -25 151 -145 159 -41 3 -97 1 -125 -3z m93 -72 c17
-17 15 -83 -2 -97 -8 -7 -32 -11 -53 -9 -48 4 -54 26 -19 79 27 39 52 49 74
27z"/>
<path d="M5134 1521 c-87 -11 -128 -37 -132 -84 l-3 -37 60 0 c55 0 62 3 84
31 20 25 30 30 58 27 33 -3 34 -4 34 -48 0 -41 -2 -45 -25 -47 -134 -13 -192
-27 -229 -53 -96 -70 -50 -210 69 -210 49 0 104 22 127 50 10 13 16 11 42 -17
26 -29 36 -33 81 -33 65 0 90 13 90 48 0 15 7 48 14 74 22 70 30 180 17 219
-17 52 -62 76 -151 82 -41 3 -103 2 -136 -2z m79 -255 c-3 -46 -27 -76 -60
-76 -46 0 -51 82 -6 109 10 6 29 10 43 8 22 -2 25 -6 23 -41z"/>
<path d="M6635 1521 c-59 -8 -124 -40 -159 -78 -68 -73 -74 -227 -12 -289 55
-54 224 -72 331 -35 45 16 51 22 64 59 20 63 12 72 -60 72 -60 0 -63 -1 -104
-45 -29 -31 -47 -44 -58 -39 -21 8 -33 69 -21 103 9 26 10 26 139 31 l130 5
17 35 c32 64 15 130 -41 162 -31 18 -156 29 -226 19z m100 -121 l0 -55 -40 -3
c-56 -3 -69 7 -54 44 19 44 51 75 74 72 17 -3 20 -10 20 -58z"/>
<path d="M7293 1521 c-17 -3 -43 -16 -57 -28 -34 -30 -54 -29 -66 2 -9 25 -13
26 -82 23 l-72 -3 -14 -45 c-7 -25 -17 -67 -22 -95 -5 -27 -19 -94 -30 -148
-12 -54 -19 -105 -16 -113 4 -10 25 -14 83 -14 43 0 84 4 91 9 12 7 33 83 52
193 13 72 31 103 60 103 21 0 26 -6 34 -43 11 -46 28 -57 81 -50 25 3 30 10
47 68 24 86 24 140 1 140 -10 0 -27 2 -38 4 -11 2 -34 1 -52 -3z"/>
<path d="M6807 1005 c-8 -8 -19 -51 -25 -97 -6 -46 -16 -121 -22 -168 -7 -47
-14 -127 -17 -178 -5 -79 -3 -92 10 -92 20 0 34 50 46 162 4 47 11 91 15 97 5
7 44 11 106 11 62 0 101 4 106 11 12 20 -20 29 -108 29 -63 0 -88 4 -89 13 -5
40 5 164 13 175 7 8 44 12 119 12 87 0 109 3 109 14 0 22 -23 26 -140 26 -82
0 -112 -4 -123 -15z"/>
<path d="M7268 996 c-10 -14 -18 -27 -18 -29 0 -3 -27 -63 -60 -133 -34 -71
-67 -142 -75 -159 -7 -16 -28 -60 -45 -97 -17 -37 -30 -75 -28 -85 7 -37 34
-16 68 52 l35 70 108 3 c81 2 108 0 111 -10 19 -76 43 -133 56 -133 19 0 17
70 -4 160 -7 33 -21 98 -31 145 -42 209 -51 235 -76 237 -16 2 -30 -5 -41 -21z
m49 -134 c28 -126 35 -194 21 -204 -14 -9 -153 -7 -162 3 -7 7 11 53 71 177
24 52 47 91 51 87 4 -3 12 -32 19 -63z"/>
<path d="M7633 1006 c-63 -28 -91 -113 -58 -175 7 -15 36 -46 62 -67 102 -83
123 -109 123 -150 -1 -61 -46 -104 -110 -104 -39 0 -67 14 -103 53 -22 23 -31
27 -40 18 -16 -16 9 -59 52 -88 26 -18 48 -23 97 -23 61 0 65 2 108 42 80 78
71 149 -32 236 -130 110 -148 149 -97 205 22 23 34 27 79 27 35 0 58 -5 66
-15 15 -18 60 -20 60 -2 -1 44 -140 73 -207 43z"/>
<path d="M7902 1009 c-38 -15 -15 -29 48 -29 32 0 62 -5 65 -11 4 -6 2 -45 -3
-87 -29 -208 -34 -253 -39 -330 -5 -78 -4 -84 13 -80 21 4 41 78 43 159 1 26
6 71 11 100 6 30 15 94 19 143 5 56 13 91 22 97 8 5 40 9 72 9 42 0 57 4 57
14 0 8 -7 17 -16 20 -25 9 -266 6 -292 -5z"/>
</g>
</svg>
